
<svg version="1.1" id="Layer_1" xmlns="http://www.w3.org/2000/svg" xmlns:xlink="http://www.w3.org/1999/xlink" x="0px" y="0px"
	 width="100%" viewBox="0 0 512 512" enable-background="new 0 0 512 512" xml:space="preserve">
<path fill="#F3705A" opacity="1.000000" stroke="none" 
	d="
M311.000000,0.999999 
	C311.750000,1.000000 312.500000,1.000000 313.521301,1.322456 
	C298.680298,17.567362 292.752289,37.290543 291.118286,58.465851 
	C289.865784,74.697144 292.685059,90.562714 297.515106,106.121941 
	C305.119202,130.617279 318.113556,152.431244 330.883514,174.377228 
	C339.943054,189.946732 349.396942,205.305267 357.923431,221.162018 
	C369.658661,242.986053 378.324310,265.953369 380.992035,291.288300 
	C388.967377,275.784027 396.492065,260.212646 403.211060,244.301071 
	C409.907684,228.442429 413.458252,211.747025 412.900085,194.440536 
	C412.703949,188.358765 411.361633,182.313950 410.519501,176.080750 
	C411.116028,176.283218 411.765625,176.295364 411.975677,176.605331 
	C417.666534,185.004211 423.853821,193.125092 428.862610,201.916580 
	C442.974792,226.686569 448.430542,253.990921 449.792511,282.039062 
	C450.579681,298.249908 449.379913,314.561523 448.947388,330.824432 
	C448.829254,335.266205 448.561798,339.748169 447.823029,344.120453 
	C446.053131,354.595123 444.052246,365.033417 441.981354,375.453979 
	C438.355194,393.700317 432.234009,411.205017 423.543793,427.542175 
	C413.733521,445.984985 400.538635,461.955566 384.264069,475.319580 
	C369.934631,487.086365 354.067902,496.284637 337.235962,503.743744 
	C327.675507,507.980530 317.542603,510.786896 306.864197,511.107300 
	C303.227142,511.216370 299.620514,512.339966 296.000000,513.000000 
	C286.979095,513.000000 277.958221,513.000000 268.761017,512.752380 
	C272.001495,511.836365 275.439911,511.262421 278.831818,510.485413 
	C328.452301,499.118561 370.382996,447.604950 360.960876,389.073792 
	C359.132416,377.715179 354.964874,367.157898 349.261292,357.895538 
	C347.839569,373.492523 346.967377,389.374664 344.795715,405.077057 
	C342.699585,420.233490 330.008484,443.162567 322.246429,445.715149 
	C322.246429,445.021820 322.074310,444.318604 322.271362,443.741455 
	C329.147308,423.601898 325.553925,404.015717 318.801819,384.748871 
	C311.276672,363.276062 297.800385,345.104980 285.720337,326.139740 
	C276.069000,310.987488 266.450592,295.732391 258.141052,279.831299 
	C250.398010,265.014313 246.043228,248.848389 246.081741,231.880325 
	C246.091644,227.512589 247.074875,223.147049 247.800476,217.237137 
	C221.541885,238.263428 205.512833,264.098297 197.247269,295.085052 
	C188.862991,326.516907 194.130814,356.729828 205.264206,386.616760 
	C189.490097,374.905396 181.713089,358.802124 178.438995,339.475647 
	C168.959732,350.648102 162.568954,362.624695 157.845322,375.516479 
	C152.615280,389.790375 150.322876,404.710541 152.324875,419.669556 
	C156.575302,451.429077 173.525314,475.668060 199.748764,493.338135 
	C208.916809,499.515839 219.244354,503.972778 228.625687,509.122528 
	C221.227432,507.342651 214.085571,506.139008 207.292221,503.884979 
	C178.367432,494.287903 151.958298,480.659363 132.004059,456.595734 
	C117.959229,439.658508 104.009911,422.745178 92.284004,404.002777 
	C75.360565,376.952911 66.423462,347.453888 64.159943,315.956451 
	C62.712433,295.813995 64.413162,275.680634 69.117119,255.953049 
	C76.612839,224.517273 90.146065,195.768921 108.428612,169.210312 
	C110.773819,165.803497 113.566055,162.704407 116.863022,158.570175 
	C116.984619,185.643341 123.252144,209.365219 140.561813,229.271835 
	C140.396133,223.774933 139.027695,218.414505 139.138290,213.084747 
	C139.398743,200.535645 139.319962,187.836670 141.262955,175.495026 
	C145.306488,149.811264 154.887726,126.020767 169.241089,104.256104 
	C181.407761,85.807228 196.459763,69.986954 213.493652,55.989346 
	C230.149078,42.302753 247.845261,30.186304 267.372314,20.953903 
	C281.828156,14.119167 296.451355,7.638434 311.000000,0.999999 
z"/>
<path fill="#FFFFFF" opacity="1.000000" stroke="none" 
	d="
M296.468658,513.000000 
	C299.620514,512.339966 303.227142,511.216370 306.864197,511.107300 
	C317.542603,510.786896 327.675507,507.980530 337.235962,503.743744 
	C354.067902,496.284637 369.934631,487.086365 384.264069,475.319580 
	C400.538635,461.955566 413.733521,445.984985 423.543793,427.542175 
	C432.234009,411.205017 438.355194,393.700317 441.981354,375.453979 
	C444.052246,365.033417 446.053131,354.595123 447.823029,344.120453 
	C448.561798,339.748169 448.829254,335.266205 448.947388,330.824432 
	C449.379913,314.561523 450.579681,298.249908 449.792511,282.039062 
	C448.430542,253.990921 442.974792,226.686569 428.862610,201.916580 
	C423.853821,193.125092 417.666534,185.004211 411.975677,176.605331 
	C411.765625,176.295364 411.116028,176.283218 410.519501,176.080750 
	C411.361633,182.313950 412.703949,188.358765 412.900085,194.440536 
	C413.458252,211.747025 409.907684,228.442429 403.211060,244.301071 
	C396.492065,260.212646 388.967377,275.784027 380.992035,291.288300 
	C378.324310,265.953369 369.658661,242.986053 357.923431,221.162018 
	C349.396942,205.305267 339.943054,189.946732 330.883514,174.377228 
	C318.113556,152.431244 305.119202,130.617279 297.515106,106.121941 
	C292.685059,90.562714 289.865784,74.697144 291.118286,58.465851 
	C292.752289,37.290543 298.680298,17.567362 313.896301,1.322456 
	C380.302063,1.000000 446.604126,1.000000 512.953125,1.000000 
	C512.953125,171.554916 512.953125,342.109863 512.953125,513.000000 
	C440.979462,513.000000 368.958374,513.000000 296.468658,513.000000 
z"/>
<path fill="#FFFFFF" opacity="1.000000" stroke="none" 
	d="
M310.531342,0.999999 
	C296.451355,7.638434 281.828156,14.119167 267.372314,20.953903 
	C247.845261,30.186304 230.149078,42.302753 213.493652,55.989346 
	C196.459763,69.986954 181.407761,85.807228 169.241089,104.256104 
	C154.887726,126.020767 145.306488,149.811264 141.262955,175.495026 
	C139.319962,187.836670 139.398743,200.535645 139.138290,213.084747 
	C139.027695,218.414505 140.396133,223.774933 140.561813,229.271835 
	C123.252144,209.365219 116.984619,185.643341 116.863022,158.570175 
	C113.566055,162.704407 110.773819,165.803497 108.428612,169.210312 
	C90.146065,195.768921 76.612839,224.517273 69.117119,255.953049 
	C64.413162,275.680634 62.712433,295.813995 64.159943,315.956451 
	C66.423462,347.453888 75.360565,376.952911 92.284004,404.002777 
	C104.009911,422.745178 117.959229,439.658508 132.004059,456.595734 
	C151.958298,480.659363 178.367432,494.287903 207.292221,503.884979 
	C214.085571,506.139008 221.227432,507.342651 228.873138,509.410095 
	C234.691544,510.860413 239.845779,511.930206 245.000000,513.000000 
	C163.700027,513.000000 82.400047,513.000000 1.050037,513.000000 
	C1.050037,342.436707 1.050037,171.873383 1.050037,1.000000 
	C104.020683,1.000000 207.041687,1.000000 310.531342,0.999999 
z"/>
<path fill="#FFD15C" opacity="1.000000" stroke="none" 
	d="
M245.468628,513.000000 
	C239.845779,511.930206 234.691544,510.860413 229.289871,509.503052 
	C219.244354,503.972778 208.916809,499.515839 199.748764,493.338135 
	C173.525314,475.668060 156.575302,451.429077 152.324875,419.669556 
	C150.322876,404.710541 152.615280,389.790375 157.845322,375.516479 
	C162.568954,362.624695 168.959732,350.648102 178.438995,339.475647 
	C181.713089,358.802124 189.490097,374.905396 205.264206,386.616760 
	C194.130814,356.729828 188.862991,326.516907 197.247269,295.085052 
	C205.512833,264.098297 221.541885,238.263428 247.800476,217.237137 
	C247.074875,223.147049 246.091644,227.512589 246.081741,231.880325 
	C246.043228,248.848389 250.398010,265.014313 258.141052,279.831299 
	C266.450592,295.732391 276.069000,310.987488 285.720337,326.139740 
	C297.800385,345.104980 311.276672,363.276062 318.801819,384.748871 
	C325.553925,404.015717 329.147308,423.601898 322.271362,443.741455 
	C322.074310,444.318604 322.246429,445.021820 322.246429,445.715149 
	C330.008484,443.162567 342.699585,420.233490 344.795715,405.077057 
	C346.967377,389.374664 347.839569,373.492523 349.261292,357.895538 
	C354.964874,367.157898 359.132416,377.715179 360.960876,389.073792 
	C370.382996,447.604950 328.452301,499.118561 278.831818,510.485413 
	C275.439911,511.262421 272.001495,511.836365 268.292358,512.752380 
	C260.645752,513.000000 253.291504,513.000000 245.468628,513.000000 
M206.525101,388.371307 
	C206.525101,388.371307 206.579773,388.468475 206.525101,388.371307 
z"/>
<path fill="#F3705A" opacity="1.000000" stroke="none" 
	d="
M206.552429,388.419891 
	C206.579773,388.468475 206.525101,388.371307 206.552429,388.419891 
z"/>
</svg>